<svg width="167" height="201" viewBox="0 0 167 201" fill="none" xmlns="http://www.w3.org/2000/svg">
<path fill-rule="evenodd" clip-rule="evenodd" d="M73 0H50.2903L41 19H73V107H93V0H73ZM101 0H125V19H101V0ZM28 130H0V138H28V130ZM29 130H37V138H29V130ZM22 139H14V147H22V139ZM14 149H22V177H14V149ZM53 130H45V177H53V130ZM54 130H77V138H54V130ZM67 151H54V158H67V151ZM54 170H77V177H54V170ZM75.4883 156.704C75.8227 156.101 76 155.36 76 154.5C76 153.007 75.6433 151.871 74.717 151.197C74.0036 150.454 73.049 150 72 150C70.951 150 69.9964 150.454 69.283 151.197C68.3567 151.871 68 153.007 68 154.5C68 155.36 68.1773 156.101 68.5117 156.704C69.1973 158.074 70.5026 159 72 159C73.4974 159 74.8027 158.074 75.4883 156.704ZM92 170.5C96.8187 174.863 100.5 177.017 108.923 177.017L108.961 169.247C104.415 169.225 101.2 167.897 98.0001 165C94.7997 162.102 93.4798 157.575 93.5001 153.5C93.5204 149.425 95.771 144.365 99.0001 141.5C101.254 139.5 104.415 138.636 108.961 138.659L109 130.889C99.6952 130.889 97.7195 132.185 92.8575 136.5C87.9955 140.814 85.41 147.729 85.3794 153.865C85.3488 160.001 87.1813 166.137 92 170.5ZM110 169H119V177H110V169ZM115 140C117.761 140 120 137.761 120 135C120 132.239 117.761 130 115 130C112.239 130 110 132.239 110 135C110 137.761 112.239 140 115 140ZM129 130H137V177H129V130ZM162 157.5C164.485 157.5 166.5 155.709 166.5 153.5C166.5 151.291 164.485 149.5 162 149.5C159.515 149.5 157.5 151.291 157.5 153.5C157.5 155.709 159.515 157.5 162 157.5ZM138 150H157V158H138V150ZM166 130H158V149H166V130ZM166 158V177H158V158H166ZM47 187H44V201H47H53V198H47V187ZM81 187H78V201H81V187ZM111 187H113H117C117.394 187 117.784 187.091 118.148 187.266C118.512 187.442 118.843 187.7 119.121 188.025C119.4 188.35 119.621 188.736 119.772 189.161C119.922 189.585 120 190.04 120 190.5C120 190.96 119.922 191.415 119.772 191.839C119.621 192.264 119.4 192.65 119.121 192.975C118.935 193.193 118.725 193.38 118.497 193.533C118.725 193.708 118.935 193.923 119.121 194.172C119.4 194.543 119.621 194.984 119.772 195.469C119.922 195.955 120 196.475 120 197C120 197.525 119.922 198.045 119.772 198.531C119.621 199.016 119.4 199.457 119.121 199.828C118.843 200.2 118.512 200.495 118.148 200.696C117.784 200.897 117.394 201 117 201H113H111V187ZM117 195H113V199H117C117.197 199 117.392 198.948 117.574 198.848C117.756 198.747 117.921 198.6 118.061 198.414C118.2 198.229 118.31 198.008 118.386 197.765C118.461 197.523 118.5 197.263 118.5 197C118.5 196.737 118.461 196.477 118.386 196.235C118.31 195.992 118.2 195.771 118.061 195.586C117.921 195.4 117.756 195.253 117.574 195.152C117.392 195.052 117.197 195 117 195ZM113 192V189H117V189.012C117.167 189.012 117.333 189.051 117.488 189.126C117.643 189.2 117.783 189.31 117.902 189.448C118.02 189.586 118.114 189.75 118.178 189.931C118.242 190.111 118.275 190.305 118.275 190.5C118.275 190.695 118.242 190.889 118.178 191.069C118.114 191.25 118.02 191.414 117.902 191.552C117.783 191.69 117.643 191.8 117.488 191.874C117.333 191.949 117.167 191.988 117 191.988V192H113Z" fill="url(#paint0_linear_101_93)"/>
<defs>
<linearGradient id="paint0_linear_101_93" x1="0" y1="100.5" x2="166.5" y2="100.5" gradientUnits="userSpaceOnUse">
<stop stop-color="#0052D4"/>
<stop offset="0.5" stop-color="#4364F7"/>
<stop offset="1" stop-color="#6FB1FC"/>
</linearGradient>
</defs>
</svg>
